<svg xmlns="http://www.w3.org/2000/svg" xmlns:xlink="http://www.w3.org/1999/xlink" width="500" zoomAndPan="magnify" viewBox="0 0 375 374.999991" height="500" preserveAspectRatio="xMidYMid meet" version="1.2"><defs><clipPath id="cab898fa45"><path d="M 1.269531 2.800781 L 374.769531 2.800781 L 374.769531 374.800781 L 1.269531 374.800781 Z M 1.269531 2.800781 "/></clipPath></defs><g id="433ba4fa8e"><g clip-rule="nonzero" clip-path="url(#cab898fa45)"><path style=" stroke:none;fill-rule:nonzero;fill:#4e4e4e;fill-opacity:1;" d="M 374.714844 107.667969 C 374.71875 107.351562 374.6875 107.039062 374.628906 106.730469 C 374.566406 106.417969 374.476562 106.117188 374.359375 105.828125 C 374.238281 105.535156 374.089844 105.257812 373.917969 104.996094 C 373.742188 104.734375 373.542969 104.488281 373.320312 104.265625 C 373.097656 104.042969 372.855469 103.84375 372.59375 103.667969 C 372.332031 103.492188 372.054688 103.347656 371.761719 103.226562 C 371.472656 103.105469 371.171875 103.015625 370.859375 102.953125 C 370.550781 102.894531 370.238281 102.863281 369.921875 102.863281 L 272.894531 102.863281 L 272.894531 7.605469 L 272.882812 7.605469 C 272.886719 7.289062 272.855469 6.976562 272.796875 6.667969 C 272.738281 6.355469 272.648438 6.054688 272.527344 5.765625 C 272.410156 5.472656 272.261719 5.195312 272.089844 4.933594 C 271.914062 4.667969 271.714844 4.425781 271.492188 4.203125 C 271.269531 3.980469 271.027344 3.78125 270.765625 3.605469 C 270.503906 3.429688 270.226562 3.28125 269.933594 3.160156 C 269.640625 3.042969 269.339844 2.949219 269.03125 2.890625 C 268.722656 2.832031 268.410156 2.800781 268.09375 2.800781 L 163.183594 2.800781 C 162.546875 2.800781 161.9375 2.925781 161.347656 3.167969 C 160.761719 3.410156 160.242188 3.757812 159.792969 4.207031 L 106.53125 57.386719 C 106.070312 57.710938 105.679688 58.101562 105.355469 58.5625 L 3.535156 160.222656 C 2.847656 160.660156 2.304688 161.238281 1.914062 161.953125 C 1.519531 162.671875 1.324219 163.4375 1.324219 164.253906 L 1.324219 267.007812 C 1.324219 267.324219 1.355469 267.636719 1.414062 267.945312 C 1.476562 268.253906 1.566406 268.554688 1.6875 268.847656 C 1.808594 269.136719 1.957031 269.414062 2.132812 269.675781 C 2.308594 269.9375 2.507812 270.179688 2.730469 270.402344 C 2.953125 270.628906 3.195312 270.824219 3.457031 271 C 3.71875 271.175781 3.996094 271.324219 4.289062 271.445312 C 4.578125 271.566406 4.878906 271.65625 5.1875 271.71875 C 5.496094 271.777344 5.808594 271.808594 6.125 271.808594 L 104.472656 271.808594 L 104.472656 370.003906 C 104.472656 370.320312 104.503906 370.628906 104.566406 370.941406 C 104.628906 371.25 104.71875 371.550781 104.839844 371.839844 C 104.960938 372.132812 105.109375 372.410156 105.285156 372.671875 C 105.457031 372.933594 105.65625 373.175781 105.878906 373.398438 C 106.101562 373.621094 106.347656 373.820312 106.609375 373.996094 C 106.871094 374.171875 107.148438 374.320312 107.4375 374.441406 C 107.730469 374.558594 108.027344 374.652344 108.339844 374.714844 C 108.648438 374.773438 108.960938 374.804688 109.273438 374.804688 L 212.441406 374.804688 C 213.753906 374.804688 214.875 374.347656 215.808594 373.425781 L 215.832031 373.402344 L 215.839844 373.402344 L 373.28125 218.519531 C 373.738281 218.066406 374.09375 217.546875 374.34375 216.953125 C 374.589844 216.359375 374.714844 215.738281 374.714844 215.097656 Z M 374.714844 107.667969 "/></g><path style=" stroke:none;fill-rule:nonzero;fill:#35ff45;fill-opacity:1;" d="M 114.078125 66.121094 L 207.640625 66.121094 L 207.640625 159.457031 L 114.078125 159.457031 Z M 114.078125 66.121094 "/><path style=" stroke:none;fill-rule:nonzero;fill:#35ff45;fill-opacity:1;" d="M 114.078125 271.804688 L 207.640625 271.804688 L 207.640625 365.195312 L 114.078125 365.195312 Z M 114.078125 271.804688 "/><path style=" stroke:none;fill-rule:nonzero;fill:#4588ff;fill-opacity:1;" d="M 104.472656 159.453125 L 17.898438 159.453125 L 104.472656 73.011719 Z M 104.472656 159.453125 "/><path style=" stroke:none;fill-rule:nonzero;fill:#4588ff;fill-opacity:1;" d="M 263.292969 105.703125 L 217.246094 152.527344 L 217.246094 64.542969 L 263.292969 19.09375 Z M 263.292969 105.703125 "/><path style=" stroke:none;fill-rule:nonzero;fill:#4588ff;fill-opacity:1;" d="M 305.410156 271.804688 L 217.246094 358.542969 L 217.246094 271.804688 Z M 305.410156 271.804688 "/><path style=" stroke:none;fill-rule:nonzero;fill:#4588ff;fill-opacity:1;" d="M 313.710938 159.453125 L 223.898438 159.453125 L 270.105469 112.46875 L 358.675781 112.46875 Z M 313.710938 159.453125 "/><path style=" stroke:none;fill-rule:nonzero;fill:#4588ff;fill-opacity:1;" d="M 165.171875 12.40625 L 256.394531 12.40625 L 211.703125 56.519531 L 120.992188 56.519531 Z M 165.171875 12.40625 "/><path style=" stroke:none;fill-rule:nonzero;fill:#4588ff;fill-opacity:1;" d="M 320.5625 256.902344 L 320.5625 166.183594 L 365.113281 119.628906 L 365.113281 213.074219 Z M 320.5625 256.902344 "/><path style=" stroke:none;fill-rule:nonzero;fill:#fcfcfc;fill-opacity:1;" d="M 114.078125 169.058594 L 207.640625 169.058594 L 207.640625 262.203125 L 114.078125 262.203125 Z M 114.078125 169.058594 "/><path style=" stroke:none;fill-rule:nonzero;fill:#35ff45;fill-opacity:1;" d="M 217.246094 169.058594 L 310.792969 169.058594 L 310.792969 262.203125 L 217.246094 262.203125 Z M 217.246094 169.058594 "/><path style=" stroke:none;fill-rule:nonzero;fill:#35ff45;fill-opacity:1;" d="M 10.925781 169.058594 L 104.472656 169.058594 L 104.472656 262.203125 L 10.925781 262.203125 Z M 10.925781 169.058594 "/></g></svg>