<svg xmlns="http://www.w3.org/2000/svg" xmlns:xlink="http://www.w3.org/1999/xlink" width="1280" zoomAndPan="magnify" viewBox="0 0 960 540.000001" height="720" preserveAspectRatio="xMidYMid meet" version="1.2"><defs><clipPath id="c53848712c"><path d="M 16.601562 165.148438 L 249.765625 165.148438 L 249.765625 398.316406 L 16.601562 398.316406 Z M 16.601562 165.148438 "/></clipPath></defs><g id="add42a7e94"><g clip-rule="nonzero" clip-path="url(#c53848712c)"><path style=" stroke:none;fill-rule:nonzero;fill:#4e4e4e;fill-opacity:1;" d="M 249.726562 230.878906 C 249.730469 230.480469 249.65625 230.09375 249.503906 229.726562 C 249.351562 229.355469 249.136719 229.03125 248.855469 228.746094 C 248.574219 228.464844 248.25 228.246094 247.882812 228.09375 C 247.515625 227.941406 247.132812 227.867188 246.738281 227.867188 L 186.167969 227.867188 L 186.167969 168.160156 L 186.160156 168.160156 C 186.164062 167.761719 186.089844 167.375 185.9375 167.007812 C 185.789062 166.636719 185.570312 166.308594 185.292969 166.027344 C 185.011719 165.746094 184.6875 165.527344 184.316406 165.375 C 183.949219 165.222656 183.566406 165.148438 183.167969 165.148438 L 117.679688 165.148438 C 116.855469 165.148438 116.148438 165.441406 115.5625 166.03125 L 82.3125 199.363281 C 82.027344 199.566406 81.78125 199.8125 81.582031 200.097656 L 18.019531 263.820312 C 17.589844 264.09375 17.253906 264.457031 17.007812 264.90625 C 16.761719 265.351562 16.640625 265.832031 16.640625 266.34375 L 16.640625 330.753906 C 16.640625 331.152344 16.714844 331.535156 16.867188 331.902344 C 17.019531 332.273438 17.238281 332.597656 17.515625 332.878906 C 17.796875 333.164062 18.121094 333.378906 18.488281 333.53125 C 18.855469 333.683594 19.238281 333.761719 19.636719 333.761719 L 81.03125 333.761719 L 81.03125 395.308594 C 81.03125 395.707031 81.105469 396.089844 81.257812 396.460938 C 81.410156 396.828125 81.628906 397.152344 81.910156 397.4375 C 82.191406 397.71875 82.515625 397.9375 82.882812 398.089844 C 83.25 398.242188 83.628906 398.320312 84.027344 398.320312 L 148.429688 398.320312 C 149.246094 398.320312 149.949219 398.03125 150.53125 397.453125 L 150.542969 397.4375 L 150.550781 397.4375 L 248.832031 300.359375 C 249.429688 299.769531 249.726562 299.054688 249.726562 298.214844 Z M 249.726562 230.878906 "/></g><path style=" stroke:none;fill-rule:nonzero;fill:#35ff45;fill-opacity:1;" d="M 87.027344 204.835938 L 145.433594 204.835938 L 145.433594 263.339844 L 87.027344 263.339844 Z M 87.027344 204.835938 "/><path style=" stroke:none;fill-rule:nonzero;fill:#35ff45;fill-opacity:1;" d="M 87.027344 333.757812 L 145.433594 333.757812 L 145.433594 392.296875 L 87.027344 392.296875 Z M 87.027344 333.757812 "/><path style=" stroke:none;fill-rule:nonzero;fill:#4588ff;fill-opacity:1;" d="M 81.03125 263.339844 L 26.984375 263.339844 L 81.03125 209.15625 Z M 81.03125 263.339844 "/><path style=" stroke:none;fill-rule:nonzero;fill:#4588ff;fill-opacity:1;" d="M 180.171875 229.644531 L 151.425781 258.996094 L 151.425781 203.847656 L 180.171875 175.359375 Z M 180.171875 229.644531 "/><path style=" stroke:none;fill-rule:nonzero;fill:#4588ff;fill-opacity:1;" d="M 206.464844 333.757812 L 151.425781 388.125 L 151.425781 333.757812 Z M 206.464844 333.757812 "/><path style=" stroke:none;fill-rule:nonzero;fill:#4588ff;fill-opacity:1;" d="M 211.644531 263.339844 L 155.582031 263.339844 L 184.425781 233.886719 L 239.714844 233.886719 Z M 211.644531 263.339844 "/><path style=" stroke:none;fill-rule:nonzero;fill:#4588ff;fill-opacity:1;" d="M 118.921875 171.167969 L 175.867188 171.167969 L 147.96875 198.816406 L 91.34375 198.816406 Z M 118.921875 171.167969 "/><path style=" stroke:none;fill-rule:nonzero;fill:#4588ff;fill-opacity:1;" d="M 215.921875 324.417969 L 215.921875 267.558594 L 243.734375 238.375 L 243.734375 296.945312 Z M 215.921875 324.417969 "/><path style=" stroke:none;fill-rule:nonzero;fill:#fcfcfc;fill-opacity:1;" d="M 87.027344 269.359375 L 145.433594 269.359375 L 145.433594 327.738281 L 87.027344 327.738281 Z M 87.027344 269.359375 "/><path style=" stroke:none;fill-rule:nonzero;fill:#35ff45;fill-opacity:1;" d="M 151.425781 269.359375 L 209.824219 269.359375 L 209.824219 327.738281 L 151.425781 327.738281 Z M 151.425781 269.359375 "/><path style=" stroke:none;fill-rule:nonzero;fill:#35ff45;fill-opacity:1;" d="M 22.632812 269.359375 L 81.03125 269.359375 L 81.03125 327.738281 L 22.632812 327.738281 Z M 22.632812 269.359375 "/><g style="fill:#4e4e4e;fill-opacity:1;"><g transform="translate(273.98618, 288.992632)"><path style="stroke:none" d="M 21.3125 -59.734375 L 0.59375 -59.734375 L 0.59375 -69.125 L 51.8125 -69.125 L 51.8125 -59.734375 L 31.1875 -59.734375 L 31.1875 0 L 21.3125 0 Z M 21.3125 -59.734375 "/></g></g><g style="fill:#4e4e4e;fill-opacity:1;"><g transform="translate(325.509588, 288.992632)"><path style="stroke:none" d="M 47.21875 -41.25 L 47.21875 -69.015625 L 57.1875 -69.015625 L 57.1875 0 L 47.21875 0 L 47.21875 -31.484375 L 18.28125 -31.484375 L 18.28125 0 L 8.40625 0 L 8.40625 -69.015625 L 18.28125 -69.015625 L 18.28125 -41.25 Z M 47.21875 -41.25 "/></g></g><g style="fill:#4e4e4e;fill-opacity:1;"><g transform="translate(390.133847, 288.992632)"><path style="stroke:none" d="M 50.15625 -9.875 L 50.15625 0 L 8.40625 0 L 8.40625 -69.125 L 50.0625 -69.125 L 50.0625 -59.25 L 18.375 -59.25 L 18.375 -39.984375 L 49.375 -39.984375 L 49.375 -30.015625 L 18.375 -30.015625 L 18.375 -9.875 Z M 50.15625 -9.875 "/></g></g><g style="fill:#4e4e4e;fill-opacity:1;"><g transform="translate(443.710353, 288.992632)"><path style="stroke:none" d=""/></g></g><g style="fill:#4e4e4e;fill-opacity:1;"><g transform="translate(467.076669, 288.992632)"><path style="stroke:none" d="M 41.9375 -32.5625 C 39.988281 -27.019531 37.96875 -21.445312 35.875 -15.84375 C 33.789062 -10.238281 31.867188 -4.828125 30.109375 0.390625 L 23.171875 0.390625 L -0.09375 -69.125 L 10.171875 -69.125 L 26.78125 -18.96875 L 38.03125 -50.9375 L 45.953125 -50.9375 L 57.09375 -19.0625 C 59.769531 -27.207031 62.554688 -35.644531 65.453125 -44.375 C 68.359375 -53.113281 71.082031 -61.363281 73.625 -69.125 L 83.984375 -69.125 L 60.90625 0.390625 L 53.96875 0.390625 Z M 41.9375 -32.5625 "/></g></g><g style="fill:#4e4e4e;fill-opacity:1;"><g transform="translate(549.592399, 288.992632)"><path style="stroke:none" d="M 50.15625 -9.875 L 50.15625 0 L 8.40625 0 L 8.40625 -69.125 L 50.0625 -69.125 L 50.0625 -59.25 L 18.375 -59.25 L 18.375 -39.984375 L 49.375 -39.984375 L 49.375 -30.015625 L 18.375 -30.015625 L 18.375 -9.875 Z M 50.15625 -9.875 "/></g></g><g style="fill:#4e4e4e;fill-opacity:1;"><g transform="translate(603.168906, 288.992632)"><path style="stroke:none" d="M 36.859375 -69.125 C 40.640625 -69.125 43.914062 -68.257812 46.6875 -66.53125 C 49.457031 -64.800781 51.585938 -62.566406 53.078125 -59.828125 C 54.578125 -57.085938 55.328125 -54.1875 55.328125 -51.125 C 55.328125 -48.65625 54.773438 -46.226562 53.671875 -43.84375 C 52.566406 -41.46875 50.835938 -39.398438 48.484375 -37.640625 C 52.398438 -36.015625 55.15625 -33.585938 56.75 -30.359375 C 58.34375 -27.128906 59.140625 -23.882812 59.140625 -20.625 C 59.140625 -17.238281 58.390625 -13.960938 56.890625 -10.796875 C 55.398438 -7.640625 53.1875 -5.050781 50.25 -3.03125 C 47.320312 -1.007812 43.671875 0 39.296875 0 L 8.40625 0 L 8.40625 -69.125 Z M 36.65625 -41.15625 C 39.394531 -41.15625 41.476562 -42.164062 42.90625 -44.1875 C 44.34375 -46.207031 45.0625 -48.390625 45.0625 -50.734375 C 45.0625 -53.015625 44.394531 -55.082031 43.0625 -56.9375 C 41.726562 -58.800781 39.660156 -59.734375 36.859375 -59.734375 L 18.1875 -59.734375 L 18.1875 -41.15625 Z M 39.296875 -9.578125 C 41.515625 -9.578125 43.359375 -10.113281 44.828125 -11.1875 C 46.296875 -12.269531 47.40625 -13.65625 48.15625 -15.34375 C 48.90625 -17.039062 49.28125 -18.769531 49.28125 -20.53125 C 49.28125 -22.351562 48.90625 -24.078125 48.15625 -25.703125 C 47.40625 -27.335938 46.296875 -28.691406 44.828125 -29.765625 C 43.359375 -30.835938 41.515625 -31.375 39.296875 -31.375 L 18.1875 -31.375 L 18.1875 -9.578125 Z M 39.296875 -9.578125 "/></g></g><g style="fill:#4e4e4e;fill-opacity:1;"><g transform="translate(664.957909, 288.992632)"><path style="stroke:none" d="M 42.625 -50.734375 C 42.164062 -52.753906 41.21875 -54.398438 39.78125 -55.671875 C 38.351562 -56.941406 36.675781 -57.882812 34.75 -58.5 C 32.832031 -59.125 30.894531 -59.4375 28.9375 -59.4375 C 26.59375 -59.4375 24.242188 -59.03125 21.890625 -58.21875 C 19.546875 -57.40625 17.660156 -56.085938 16.234375 -54.265625 C 15.640625 -53.546875 15.210938 -52.710938 14.953125 -51.765625 C 14.691406 -50.816406 14.5625 -49.859375 14.5625 -48.890625 C 14.5625 -46.273438 15.328125 -44.316406 16.859375 -43.015625 C 18.390625 -41.710938 20.34375 -40.832031 22.71875 -40.375 C 25.101562 -39.914062 27.566406 -39.554688 30.109375 -39.296875 C 32.453125 -39.035156 34.863281 -38.628906 37.34375 -38.078125 C 39.820312 -37.523438 42.1875 -36.726562 44.4375 -35.6875 C 46.6875 -34.644531 48.640625 -33.242188 50.296875 -31.484375 C 51.960938 -29.722656 53.117188 -27.472656 53.765625 -24.734375 C 54.097656 -23.109375 54.265625 -21.609375 54.265625 -20.234375 C 54.265625 -16.910156 53.53125 -13.960938 52.0625 -11.390625 C 50.59375 -8.816406 48.632812 -6.632812 46.1875 -4.84375 C 43.75 -3.050781 41.015625 -1.695312 37.984375 -0.78125 C 34.953125 0.132812 31.90625 0.59375 28.84375 0.59375 C 26.238281 0.59375 23.550781 0.203125 20.78125 -0.578125 C 18.007812 -1.367188 15.429688 -2.53125 13.046875 -4.0625 C 10.671875 -5.59375 8.679688 -7.515625 7.078125 -9.828125 C 5.484375 -12.140625 4.523438 -14.828125 4.203125 -17.890625 L 4.109375 -19.75 L 14.078125 -19.9375 L 14.171875 -18.484375 L 14.171875 -18.875 C 14.429688 -16.78125 15.328125 -15 16.859375 -13.53125 C 18.390625 -12.070312 20.265625 -10.984375 22.484375 -10.265625 C 24.703125 -9.546875 26.851562 -9.1875 28.9375 -9.1875 C 31.414062 -9.1875 33.828125 -9.625 36.171875 -10.5 C 38.515625 -11.382812 40.453125 -12.65625 41.984375 -14.3125 C 43.515625 -15.976562 44.28125 -17.984375 44.28125 -20.328125 C 44.28125 -21.046875 44.1875 -21.832031 44 -22.6875 C 43.601562 -24.445312 42.640625 -25.765625 41.109375 -26.640625 C 39.578125 -27.523438 37.734375 -28.160156 35.578125 -28.546875 C 33.429688 -28.941406 31.21875 -29.234375 28.9375 -29.421875 C 26.269531 -29.679688 23.566406 -30.085938 20.828125 -30.640625 C 18.085938 -31.203125 15.539062 -32.101562 13.1875 -33.34375 C 10.84375 -34.582031 8.90625 -36.289062 7.375 -38.46875 C 5.84375 -40.65625 4.945312 -43.539062 4.6875 -47.125 L 4.6875 -47.03125 C 4.6875 -47.351562 4.671875 -47.644531 4.640625 -47.90625 C 4.609375 -48.164062 4.59375 -48.425781 4.59375 -48.6875 C 4.59375 -52.925781 5.863281 -56.707031 8.40625 -60.03125 C 10.6875 -63.03125 13.71875 -65.296875 17.5 -66.828125 C 21.28125 -68.359375 25.160156 -69.125 29.140625 -69.125 C 32.648438 -69.125 36.082031 -68.488281 39.4375 -67.21875 C 42.800781 -65.945312 45.65625 -63.988281 48 -61.34375 C 50.34375 -58.707031 51.8125 -55.300781 52.40625 -51.125 Z M 42.625 -50.734375 "/></g></g><g style="fill:#4e4e4e;fill-opacity:1;"><g transform="translate(722.151855, 288.992632)"><path style="stroke:none" d="M 21.3125 -59.734375 L 0.59375 -59.734375 L 0.59375 -69.125 L 51.8125 -69.125 L 51.8125 -59.734375 L 31.1875 -59.734375 L 31.1875 0 L 21.3125 0 Z M 21.3125 -59.734375 "/></g></g><g style="fill:#4e4e4e;fill-opacity:1;"><g transform="translate(773.675211, 288.992632)"><path style="stroke:none" d="M 16.90625 -17.296875 L 10.265625 0 L -0.390625 0 L 27.078125 -69.3125 L 34.3125 -69.3125 L 61.78125 0 L 51.234375 0 L 44.671875 -17.296875 Z M 41.0625 -26.59375 L 30.796875 -53.578125 L 20.53125 -26.59375 Z M 41.0625 -26.59375 "/></g></g><g style="fill:#4e4e4e;fill-opacity:1;"><g transform="translate(834.682082, 288.992632)"><path style="stroke:none" d="M 33.34375 -34.703125 C 36.144531 -34.703125 38.457031 -35.285156 40.28125 -36.453125 C 42.101562 -37.628906 43.46875 -39.128906 44.375 -40.953125 C 45.289062 -42.785156 45.75 -44.679688 45.75 -46.640625 C 45.75 -48.585938 45.289062 -50.539062 44.375 -52.5 C 43.46875 -54.457031 42.101562 -56.085938 40.28125 -57.390625 C 38.457031 -58.691406 36.144531 -59.34375 33.34375 -59.34375 L 18.1875 -59.34375 L 18.1875 0 L 8.40625 0 L 8.40625 -69.3125 L 33.34375 -69.3125 C 37.050781 -69.3125 40.304688 -68.644531 43.109375 -67.3125 C 45.910156 -65.976562 48.238281 -64.21875 50.09375 -62.03125 C 51.957031 -59.84375 53.34375 -57.410156 54.25 -54.734375 C 55.164062 -52.066406 55.625 -49.367188 55.625 -46.640625 C 55.625 -43.441406 54.972656 -40.359375 53.671875 -37.390625 C 52.367188 -34.429688 50.394531 -31.921875 47.75 -29.859375 C 45.113281 -27.804688 41.84375 -26.425781 37.9375 -25.71875 L 59.546875 0 L 46.734375 0 L 21.796875 -30.015625 L 21.796875 -34.703125 Z M 33.34375 -34.703125 "/></g></g><g style="fill:#4e4e4e;fill-opacity:1;"><g transform="translate(891.973732, 288.992632)"><path style="stroke:none" d="M 21.3125 -59.734375 L 0.59375 -59.734375 L 0.59375 -69.125 L 51.8125 -69.125 L 51.8125 -59.734375 L 31.1875 -59.734375 L 31.1875 0 L 21.3125 0 Z M 21.3125 -59.734375 "/></g></g><g style="fill:#4588ff;fill-opacity:1;"><g transform="translate(478.862638, 357.082231)"><path style="stroke:none" d="M 9.796875 -20.53125 C 11.460938 -20.53125 12.921875 -20.234375 14.171875 -19.640625 C 15.421875 -19.046875 16.460938 -18.25 17.296875 -17.25 C 18.128906 -16.257812 18.753906 -15.144531 19.171875 -13.90625 C 19.585938 -12.675781 19.796875 -11.421875 19.796875 -10.140625 C 19.796875 -8.867188 19.585938 -7.628906 19.171875 -6.421875 C 18.753906 -5.222656 18.128906 -4.140625 17.296875 -3.171875 C 16.460938 -2.203125 15.421875 -1.429688 14.171875 -0.859375 C 12.921875 -0.285156 11.460938 0 9.796875 0 L 2.5 0 L 2.5 -20.53125 Z M 9.796875 -2.9375 C 11.367188 -2.9375 12.679688 -3.285156 13.734375 -3.984375 C 14.796875 -4.679688 15.585938 -5.582031 16.109375 -6.6875 C 16.628906 -7.789062 16.890625 -8.941406 16.890625 -10.140625 C 16.890625 -11.054688 16.738281 -11.945312 16.4375 -12.8125 C 16.144531 -13.6875 15.703125 -14.488281 15.109375 -15.21875 C 14.515625 -15.945312 13.773438 -16.523438 12.890625 -16.953125 C 12.015625 -17.378906 10.984375 -17.59375 9.796875 -17.59375 L 5.4375 -17.59375 L 5.4375 -2.9375 Z M 9.796875 -2.9375 "/></g></g><g style="fill:#4588ff;fill-opacity:1;"><g transform="translate(499.940637, 357.082231)"><path style="stroke:none" d="M 14.921875 -2.9375 L 14.921875 0 L 2.5 0 L 2.5 -20.5625 L 14.890625 -20.5625 L 14.890625 -17.625 L 5.46875 -17.625 L 5.46875 -11.890625 L 14.6875 -11.890625 L 14.6875 -8.921875 L 5.46875 -8.921875 L 5.46875 -2.9375 Z M 14.921875 -2.9375 "/></g></g><g style="fill:#4588ff;fill-opacity:1;"><g transform="translate(516.163441, 357.082231)"><path style="stroke:none" d="M 15 -2.9375 L 15 0 L 2.5 0 L 2.5 -20.359375 L 5.4375 -20.359375 L 5.4375 -2.9375 Z M 15 -2.9375 "/></g></g><g style="fill:#4588ff;fill-opacity:1;"><g transform="translate(531.310543, 357.082231)"><path style="stroke:none" d="M 9.21875 -17.828125 L 9.21875 -2.734375 L 13 -2.734375 L 13 0 L 2.5 0 L 2.5 -2.734375 L 6.28125 -2.734375 L 6.28125 -17.828125 L 2.5 -17.828125 L 2.5 -20.53125 L 13 -20.53125 L 13 -17.828125 Z M 9.21875 -17.828125 "/></g></g><g style="fill:#4588ff;fill-opacity:1;"><g transform="translate(546.777448, 357.082231)"><path style="stroke:none" d="M 18.640625 -20.5625 L 10.375 0.0625 L 8.234375 0.0625 L -0.03125 -20.5625 L 3.171875 -20.5625 L 9.3125 -5.125 L 15.5 -20.5625 Z M 18.640625 -20.5625 "/></g></g><g style="fill:#4588ff;fill-opacity:1;"><g transform="translate(565.180734, 357.082231)"><path style="stroke:none" d="M 14.921875 -2.9375 L 14.921875 0 L 2.5 0 L 2.5 -20.5625 L 14.890625 -20.5625 L 14.890625 -17.625 L 5.46875 -17.625 L 5.46875 -11.890625 L 14.6875 -11.890625 L 14.6875 -8.921875 L 5.46875 -8.921875 L 5.46875 -2.9375 Z M 14.921875 -2.9375 "/></g></g><g style="fill:#4588ff;fill-opacity:1;"><g transform="translate(581.403537, 357.082231)"><path style="stroke:none" d="M 9.921875 -10.328125 C 10.753906 -10.328125 11.441406 -10.5 11.984375 -10.84375 C 12.523438 -11.195312 12.929688 -11.644531 13.203125 -12.1875 C 13.472656 -12.726562 13.609375 -13.289062 13.609375 -13.875 C 13.609375 -14.457031 13.472656 -15.035156 13.203125 -15.609375 C 12.929688 -16.191406 12.523438 -16.675781 11.984375 -17.0625 C 11.441406 -17.457031 10.753906 -17.65625 9.921875 -17.65625 L 5.40625 -17.65625 L 5.40625 0 L 2.5 0 L 2.5 -20.609375 L 9.921875 -20.609375 C 11.023438 -20.609375 11.992188 -20.410156 12.828125 -20.015625 C 13.660156 -19.617188 14.351562 -19.09375 14.90625 -18.4375 C 15.457031 -17.789062 15.867188 -17.070312 16.140625 -16.28125 C 16.410156 -15.488281 16.546875 -14.6875 16.546875 -13.875 C 16.546875 -12.925781 16.347656 -12.007812 15.953125 -11.125 C 15.566406 -10.238281 14.984375 -9.488281 14.203125 -8.875 C 13.421875 -8.269531 12.445312 -7.859375 11.28125 -7.640625 L 17.703125 0 L 13.90625 0 L 6.484375 -8.921875 L 6.484375 -10.328125 Z M 9.921875 -10.328125 "/></g></g><g style="fill:#4588ff;fill-opacity:1;"><g transform="translate(598.731122, 357.082231)"><path style="stroke:none" d="M 9.21875 -17.828125 L 9.21875 -2.734375 L 13 -2.734375 L 13 0 L 2.5 0 L 2.5 -2.734375 L 6.28125 -2.734375 L 6.28125 -17.828125 L 2.5 -17.828125 L 2.5 -20.53125 L 13 -20.53125 L 13 -17.828125 Z M 9.21875 -17.828125 "/></g></g><g style="fill:#4588ff;fill-opacity:1;"><g transform="translate(614.198026, 357.082231)"><path style="stroke:none" d="M 2.5 -20.359375 L 4.765625 -20.359375 L 14.6875 -6.015625 L 14.6875 -20.359375 L 17.59375 -20.359375 L 17.59375 0 L 15.265625 0 L 5.4375 -14.21875 L 5.4375 0 L 2.5 0 Z M 2.5 -20.359375 "/></g></g><g style="fill:#4588ff;fill-opacity:1;"><g transform="translate(634.287539, 357.082231)"><path style="stroke:none" d="M 18.109375 -13.203125 C 17.835938 -14.328125 17.335938 -15.210938 16.609375 -15.859375 C 15.890625 -16.515625 15.066406 -16.976562 14.140625 -17.25 C 13.222656 -17.53125 12.316406 -17.671875 11.421875 -17.671875 C 10.066406 -17.671875 8.847656 -17.347656 7.765625 -16.703125 C 6.679688 -16.054688 5.816406 -15.164062 5.171875 -14.03125 C 4.535156 -12.894531 4.21875 -11.597656 4.21875 -10.140625 C 4.21875 -8.691406 4.535156 -7.390625 5.171875 -6.234375 C 5.816406 -5.078125 6.679688 -4.171875 7.765625 -3.515625 C 8.847656 -2.859375 10.066406 -2.53125 11.421875 -2.53125 C 12.273438 -2.53125 13.125 -2.6875 13.96875 -3 C 14.8125 -3.320312 15.582031 -3.804688 16.28125 -4.453125 C 16.976562 -5.109375 17.53125 -5.941406 17.9375 -6.953125 L 10.265625 -6.953125 L 10.265625 -9.9375 L 21.453125 -9.9375 C 21.378906 -9.070312 21.300781 -8.34375 21.21875 -7.75 C 21.144531 -7.15625 21.03125 -6.6875 20.875 -6.34375 L 20.875 -6.375 C 20.414062 -5.050781 19.675781 -3.882812 18.65625 -2.875 C 17.632812 -1.863281 16.488281 -1.070312 15.21875 -0.5 C 13.945312 0.0625 12.679688 0.34375 11.421875 0.34375 C 9.972656 0.34375 8.628906 0.0859375 7.390625 -0.421875 C 6.148438 -0.929688 5.066406 -1.65625 4.140625 -2.59375 C 3.222656 -3.539062 2.503906 -4.648438 1.984375 -5.921875 C 1.472656 -7.203125 1.21875 -8.609375 1.21875 -10.140625 C 1.21875 -11.679688 1.476562 -13.09375 2 -14.375 C 2.53125 -15.664062 3.257812 -16.78125 4.1875 -17.71875 C 5.113281 -18.664062 6.191406 -19.394531 7.421875 -19.90625 C 8.660156 -20.414062 9.992188 -20.671875 11.421875 -20.671875 C 12.410156 -20.671875 13.425781 -20.539062 14.46875 -20.28125 C 15.519531 -20.019531 16.507812 -19.597656 17.4375 -19.015625 C 18.375 -18.429688 19.1875 -17.660156 19.875 -16.703125 C 20.5625 -15.742188 21.039062 -14.578125 21.3125 -13.203125 Z M 18.109375 -13.203125 "/></g></g><g style="fill:#4588ff;fill-opacity:1;"><g transform="translate(657.307976, 357.082231)"><path style="stroke:none" d=""/></g></g><g style="fill:#4588ff;fill-opacity:1;"><g transform="translate(664.547185, 357.082231)"><path style="stroke:none" d=""/></g></g><g style="fill:#4588ff;fill-opacity:1;"><g transform="translate(671.808034, 357.082231)"><path style="stroke:none" d="M 10.96875 -20.5625 C 12.09375 -20.5625 13.066406 -20.300781 13.890625 -19.78125 C 14.710938 -19.269531 15.34375 -18.609375 15.78125 -17.796875 C 16.226562 -16.984375 16.453125 -16.117188 16.453125 -15.203125 C 16.453125 -14.472656 16.285156 -13.753906 15.953125 -13.046875 C 15.628906 -12.335938 15.117188 -11.71875 14.421875 -11.1875 C 15.585938 -10.707031 16.40625 -9.988281 16.875 -9.03125 C 17.351562 -8.070312 17.59375 -7.109375 17.59375 -6.140625 C 17.59375 -5.128906 17.367188 -4.148438 16.921875 -3.203125 C 16.472656 -2.265625 15.8125 -1.492188 14.9375 -0.890625 C 14.070312 -0.296875 12.988281 0 11.6875 0 L 2.5 0 L 2.5 -20.5625 Z M 10.90625 -12.234375 C 11.71875 -12.234375 12.335938 -12.535156 12.765625 -13.140625 C 13.191406 -13.742188 13.40625 -14.394531 13.40625 -15.09375 C 13.40625 -15.769531 13.207031 -16.382812 12.8125 -16.9375 C 12.414062 -17.488281 11.800781 -17.765625 10.96875 -17.765625 L 5.40625 -17.765625 L 5.40625 -12.234375 Z M 11.6875 -2.84375 C 12.34375 -2.84375 12.890625 -3.003906 13.328125 -3.328125 C 13.765625 -3.648438 14.09375 -4.0625 14.3125 -4.5625 C 14.539062 -5.070312 14.65625 -5.585938 14.65625 -6.109375 C 14.65625 -6.648438 14.539062 -7.160156 14.3125 -7.640625 C 14.09375 -8.128906 13.765625 -8.53125 13.328125 -8.84375 C 12.890625 -9.164062 12.34375 -9.328125 11.6875 -9.328125 L 5.40625 -9.328125 L 5.40625 -2.84375 Z M 11.6875 -2.84375 "/></g></g><g style="fill:#4588ff;fill-opacity:1;"><g transform="translate(690.472963, 357.082231)"><path style="stroke:none" d="M 14.921875 -2.9375 L 14.921875 0 L 2.5 0 L 2.5 -20.5625 L 14.890625 -20.5625 L 14.890625 -17.625 L 5.46875 -17.625 L 5.46875 -11.890625 L 14.6875 -11.890625 L 14.6875 -8.921875 L 5.46875 -8.921875 L 5.46875 -2.9375 Z M 14.921875 -2.9375 "/></g></g><g style="fill:#4588ff;fill-opacity:1;"><g transform="translate(706.695766, 357.082231)"><path style="stroke:none" d="M 12.671875 -15.09375 C 12.535156 -15.695312 12.253906 -16.1875 11.828125 -16.5625 C 11.398438 -16.9375 10.898438 -17.210938 10.328125 -17.390625 C 9.765625 -17.578125 9.191406 -17.671875 8.609375 -17.671875 C 7.910156 -17.671875 7.210938 -17.550781 6.515625 -17.3125 C 5.816406 -17.070312 5.253906 -16.679688 4.828125 -16.140625 C 4.648438 -15.921875 4.519531 -15.671875 4.4375 -15.390625 C 4.363281 -15.109375 4.328125 -14.820312 4.328125 -14.53125 C 4.328125 -13.757812 4.554688 -13.179688 5.015625 -12.796875 C 5.472656 -12.410156 6.054688 -12.148438 6.765625 -12.015625 C 7.472656 -11.878906 8.203125 -11.769531 8.953125 -11.6875 C 9.648438 -11.613281 10.367188 -11.492188 11.109375 -11.328125 C 11.847656 -11.160156 12.550781 -10.921875 13.21875 -10.609375 C 13.882812 -10.296875 14.460938 -9.878906 14.953125 -9.359375 C 15.453125 -8.835938 15.800781 -8.171875 16 -7.359375 C 16.09375 -6.867188 16.140625 -6.421875 16.140625 -6.015625 C 16.140625 -5.023438 15.921875 -4.144531 15.484375 -3.375 C 15.046875 -2.613281 14.460938 -1.96875 13.734375 -1.4375 C 13.015625 -0.90625 12.203125 -0.503906 11.296875 -0.234375 C 10.390625 0.0351562 9.484375 0.171875 8.578125 0.171875 C 7.804688 0.171875 7.003906 0.0546875 6.171875 -0.171875 C 5.347656 -0.398438 4.582031 -0.742188 3.875 -1.203125 C 3.175781 -1.660156 2.585938 -2.234375 2.109375 -2.921875 C 1.628906 -3.609375 1.34375 -4.410156 1.25 -5.328125 L 1.21875 -5.875 L 4.1875 -5.9375 L 4.21875 -5.5 L 4.21875 -5.609375 C 4.289062 -4.992188 4.554688 -4.46875 5.015625 -4.03125 C 5.472656 -3.59375 6.03125 -3.265625 6.6875 -3.046875 C 7.34375 -2.835938 7.984375 -2.734375 8.609375 -2.734375 C 9.347656 -2.734375 10.066406 -2.863281 10.765625 -3.125 C 11.460938 -3.382812 12.035156 -3.757812 12.484375 -4.25 C 12.941406 -4.75 13.171875 -5.347656 13.171875 -6.046875 C 13.171875 -6.265625 13.140625 -6.5 13.078125 -6.75 C 12.960938 -7.269531 12.675781 -7.660156 12.21875 -7.921875 C 11.769531 -8.179688 11.222656 -8.367188 10.578125 -8.484375 C 9.941406 -8.609375 9.285156 -8.695312 8.609375 -8.75 C 7.816406 -8.832031 7.007812 -8.953125 6.1875 -9.109375 C 5.375 -9.273438 4.617188 -9.539062 3.921875 -9.90625 C 3.222656 -10.28125 2.644531 -10.789062 2.1875 -11.4375 C 1.738281 -12.09375 1.472656 -12.953125 1.390625 -14.015625 L 1.390625 -13.984375 C 1.390625 -14.078125 1.382812 -14.160156 1.375 -14.234375 C 1.363281 -14.316406 1.359375 -14.398438 1.359375 -14.484375 C 1.359375 -15.742188 1.738281 -16.867188 2.5 -17.859375 C 3.175781 -18.742188 4.078125 -19.414062 5.203125 -19.875 C 6.328125 -20.332031 7.484375 -20.5625 8.671875 -20.5625 C 9.710938 -20.5625 10.734375 -20.367188 11.734375 -19.984375 C 12.734375 -19.609375 13.582031 -19.023438 14.28125 -18.234375 C 14.976562 -17.453125 15.410156 -16.441406 15.578125 -15.203125 Z M 12.671875 -15.09375 "/></g></g><g style="fill:#4588ff;fill-opacity:1;"><g transform="translate(723.994271, 357.082231)"><path style="stroke:none" d="M 6.34375 -17.765625 L 0.171875 -17.765625 L 0.171875 -20.5625 L 15.40625 -20.5625 L 15.40625 -17.765625 L 9.28125 -17.765625 L 9.28125 0 L 6.34375 0 Z M 6.34375 -17.765625 "/></g></g></g></svg>