<?xml version="1.0" encoding="UTF-8"?>
<svg version="1.1" xmlns="http://www.w3.org/2000/svg" width="180" height="60">
<path d="M0 0 C59.4 0 118.8 0 180 0 C180 19.8 180 39.6 180 60 C120.6 60 61.2 60 0 60 C0 40.2 0 20.4 0 0 Z " fill="#FDFDFD" transform="translate(0,0)"/>
<path d="M0 0 C4.62 0 9.24 0 14 0 C14 0.33 14 0.66 14 1 C11.69 1 9.38 1 7 1 C7 2.98 7 4.96 7 7 C8.98 7 10.96 7 13 7 C13.66 5.35 14.32 3.7 15 2 C15.33 2.66 15.66 3.32 16 4 C15.67 4.99 15.34 5.98 15 7 C16.32 7.33 17.64 7.66 19 8 C19.33 7.34 19.66 6.68 20 6 C20 6.66 20 7.32 20 8 C20.99 7.67 21.98 7.34 23 7 C23 7.66 23 8.32 23 9 C21.14375 8.9690625 21.14375 8.9690625 19.25 8.9375 C16.94544623 8.92941385 15.10836112 8.97131617 12.875 9.5625 C10.1167247 10.20609757 7.73998157 9.56045077 5 9 C4.67 10.32 4.34 11.64 4 13 C4.14168137 11.56208484 4.28851043 10.1246763 4.4375 8.6875 C4.51871094 7.88699219 4.59992188 7.08648437 4.68359375 6.26171875 C5 4 5 4 6 1 C4.02 1 2.04 1 0 1 C0 0.67 0 0.34 0 0 Z " fill="#AAA9A9" transform="translate(98,21)"/>
<path d="M0 0 C0.33 1.32 0.66 2.64 1 4 C4.96 4 8.92 4 13 4 C10.63546807 6.36453193 9.74130071 6.36652704 6.5 6.6875 C5.7059375 6.77386719 4.911875 6.86023438 4.09375 6.94921875 C2 7 2 7 0 6 C-0.66 7.32 -1.32 8.64 -2 10 C-1.34 6.7 -0.68 3.4 0 0 Z " fill="#B6B6B5" transform="translate(76,24)"/>
</svg>
